<svg id="Layer_1" xmlns="http://www.w3.org/2000/svg" viewBox="0 0 445 90"><style>.st0{fill:#fff}.st1{fill:#56e07b}.st2{display:none}.st3{display:inline}.st4{fill:#2f285a}</style><g id="GREEN_WHITE"><path class="st0" d="M90.7 23c11.1 0 17.8 6.1 17.8 15.2s-6.7 15.2-17.8 15.2h-2.6v12.7c0 .4-.4.9-1 .9H75.7c-.4 0-.9-.4-.9-.9V24c0-.5.4-1 .9-1h15zm.6 18.9c2.2 0 3.8-1.5 3.8-3.8 0-2.2-1.5-3.8-3.8-3.8H88V42l3.3-.1zM138.8 55.5c.4 0 .8.4.8.9l-.9 9.7c-.1.4-.5.9-1 .9h-23c-.5 0-1-.4-1-.9V24c0-.5.4-1 1-1H126c.5 0 1 .4 1 1v31.6l11.8-.1zM189 66.2c.2.4-.1.8-.6.8h-12.6c-.6 0-1.1-.3-1.3-.8l-1.9-6.7h-12l-1.9 6.7c-.3.5-.8.8-1.3.8h-12.6c-.5 0-.8-.4-.6-.8l14.4-42.3c.2-.4.9-.8 1.5-.8h13c.6 0 1.3.4 1.5.8L189 66.2zm-22.5-27.9l-3.4 12.1h6.9l-3.5-12.1zM223.6 23c.6 0 1 .4.7 1l-14.1 25.4v16.7c0 .4-.4.9-1 .9H198c-.5 0-1-.4-1-.9V49.4L183 24c-.3-.6.1-1 .7-1H197c.6 0 1.2.4 1.5 1l5.2 11.5 5.2-11.5c.3-.6.8-1 1.5-1h13.2zM259.2 23c.6 0 1 .4 1 .9v9.6c0 .6-.4 1-1 1H243v5.8h12.8c.6 0 .9.4.8.8l-.9 8.9c-.1.4-.5.8-1.1.8H243V66c0 .4-.4.9-1 .9h-11.3c-.5 0-.9-.5-.9-1v-42c0-.4.4-.9.9-.9h28.5zM277.6 23c.6 0 1 .4 1 1v42.1c0 .4-.4.9-1 .9h-11.3c-.4 0-.9-.4-.9-.9V24c0-.5.4-1 .9-1h11.3zM320.9 23c.6 0 1 .4 1 1v42.1c0 .4-.4.9-1 .9h-11c-.4 0-1-.3-1.3-.8l-11.1-19.8v19.8c0 .4-.4.9-1 .9h-11.3c-.5 0-.9-.4-.9-.9V24c0-.5.4-1 .9-1h11c.6 0 1.2.3 1.5.8l11 19.8V24c0-.5.4-1 .9-1h11.3zM343.4 23c13.5 0 22.5 8.7 22.5 22 0 13.1-9 22-22.5 22h-14.8c-.4 0-.9-.4-.9-1V24c0-.5.4-1 .9-1h14.8zm.8 32.5c4.9 0 8.2-4.2 8.2-10.5s-3.3-10.5-8.2-10.5h-3.3v21h3.3zM401.3 55.5c.5 0 1 .4 1 .8V66c0 .4-.4.9-1 .9h-29.6c-.4 0-.9-.5-1-1v-42c0-.6.3-.9.9-.9h29c.6 0 1 .4 1 .9v9.6c0 .6-.4 1-1 1H384v5h13.5c.6 0 .9.4.8.8l-.9 8.9c-.1.4-.5.8-1.1.8h-12.4v5.4l17.4.1zM443.5 66c.3.6-.1 1-.7 1h-13.6c-.6 0-1.2-.4-1.5-1l-6.6-13.9h-.8v14c0 .4-.4.9-1 .9h-11.2c-.5 0-1-.4-1-.9V24c0-.5.4-1 1-1h16.8c9.8 0 16.3 5.7 16.3 14.4 0 5-3.1 10.1-7.8 12.2L443.5 66zm-19.4-24.7c2.2 0 3.6-1.3 3.6-3.4s-1.5-3.4-3.6-3.4h-3.8v6.8h3.8z"/><g><path class="st1" d="M23.4 17.6c-7 4.1-9.4 13-5.4 20l8.2 14.2 4.5 7.8 8.5 14.6 4.2-7.3-19-32.9c-2-3.5-.8-8 2.7-10s8-.8 10 2.7.8 8-2.7 10l3.7 6.3c7-4.1 9.4-13 5.4-20s-13.1-9.4-20.1-5.4z"/><path class="st1" d="M16.1 4.9C2 13-2.8 31 5.3 45l25.4 44 4.2-7.3-23.2-40.3c-6.1-10.5-2.5-24 8-30.1s24-2.5 30.1 8c6.1 10.5 2.5 24-8 30.1l3.7 6.3c14-8.1 18.8-26.1 10.7-40.1S30.1-3.2 16.1 4.9z"/></g></g><g id="GREEN_NAVI" class="st2"><g class="st3"><path class="st4" d="M89.9 22.9c11.2 0 18 6.1 18 15.3s-6.7 15.3-18 15.3h-2.6v12.8c0 .4-.4.9-1 .9H74.7c-.4 0-.9-.4-.9-.9V23.8c0-.5.4-1 .9-1l15.2.1zm.6 19c2.2 0 3.8-1.5 3.8-3.8 0-2.2-1.5-3.8-3.8-3.8h-3.3v7.6h3.3zM138.3 55.6c.4 0 .8.4.8.9l-.9 9.8c-.1.4-.5.9-1 .9H114c-.5 0-1-.4-1-.9V23.8c0-.5.4-1 1-1h11.3c.5 0 1 .5 1 1v31.7l12 .1zM188.8 66.3c.2.4-.1.8-.6.8h-12.7c-.6 0-1.1-.3-1.4-.8l-1.9-6.7h-12.1l-1.9 6.7c-.3.5-.8.8-1.4.8h-12.7c-.5 0-.8-.4-.6-.8L158 23.7c.2-.4.9-.8 1.5-.8h13.1c.6 0 1.4.5 1.5.8l14.7 42.6zm-22.6-28.1l-3.5 12.2h6.9l-3.4-12.2zM223.6 22.9c.6 0 1 .5.7 1l-14.2 25.5v16.8c0 .4-.4.9-1 .9h-11.3c-.5 0-1-.4-1-.9V49.4l-14.2-25.5c-.3-.6.1-1 .7-1h13.3c.6 0 1.2.5 1.5 1l5.3 11.5 5.3-11.5c.3-.6.8-1 1.5-1h13.4zM259.4 22.9c.6 0 1 .5 1 .9v9.7c0 .6-.4 1-1 1h-16.3v5.8H256c.6 0 .9.5.8.8l-.9 9c-.1.4-.5.8-1.1.8h-11.7v15.3c0 .4-.4.9-1 .9h-11.4c-.5 0-.9-.5-.9-1V23.8c0-.5.4-.9.9-.9h28.7zM277.9 22.9c.6 0 1 .5 1 1v42.4c0 .4-.4.9-1 .9h-11.4c-.5 0-.9-.4-.9-.9V23.8c0-.5.5-1 .9-1l11.4.1zM321.6 22.9c.6 0 1 .5 1 1v42.4c0 .4-.4.9-1 .9h-11.1c-.5 0-1-.3-1.4-.8L298 46.3v19.9c0 .4-.4.9-1 .9h-11.4c-.5 0-.9-.4-.9-.9V23.8c0-.5.4-1 .9-1h11.1c.6 0 1.2.3 1.5.8l11.1 20V23.8c0-.5.5-1 .9-1l11.4.1zM344.2 22.9c13.6 0 22.6 8.8 22.6 22.1 0 13.2-9 22.1-22.6 22.1h-14.9c-.5 0-.9-.4-.9-1V23.8c0-.5.5-1 .9-1l14.9.1zm.8 32.7c4.9 0 8.3-4.2 8.3-10.6S350 34.4 345 34.4h-3.3v21.2h3.3zM402.4 55.6c.5 0 1 .4 1 .8v9.8c0 .4-.5.9-1 .9h-29.8c-.5 0-.9-.5-1-1V23.8c0-.6.3-.9.9-.9h29.2c.6 0 1 .5 1 .9v9.7c0 .6-.5 1-1 1H385v5.1h13.6c.6 0 .9.5.8.8l-.9 9c-.1.4-.5.8-1.1.8H385v5.5l17.4-.1zM444.9 66.1c.3.6-.1 1-.7 1h-13.7c-.6 0-1.2-.4-1.5-1l-6.7-14h-.8v14.1c0 .4-.5.9-1 .9h-11.3c-.5 0-1-.4-1-.9V23.8c0-.5.5-1 1-1h16.9c9.9 0 16.4 5.8 16.4 14.5 0 5.1-3.1 10.2-7.9 12.2l10.3 16.6zm-19.6-24.9c2.2 0 3.7-1.3 3.7-3.4s-1.5-3.4-3.7-3.4h-3.8v6.8h3.8z"/></g><g class="st3"><path class="st1" d="M22.2 17.5c-7.1 4.1-9.5 13.1-5.4 20.2L25 51.9l4.5 7.8L38 74.4l4.3-7.4-19.2-33.1c-2-3.5-.8-8 2.7-10.1s8-.8 10.1 2.7.8 8-2.7 10.1l3.7 6.4c7.1-4.1 9.5-13.1 5.4-20.2s-13.1-9.4-20.1-5.3z"/><path class="st1" d="M14.8 4.7C.6 12.8-4.2 30.9 4 45l25.6 44.2 4.3-7.4-23.5-40.5C4.3 30.7 7.9 17.2 18.5 11s24.1-2.5 30.3 8.1c6.1 10.6 2.5 24.1-8.1 30.3l3.7 6.4c14.1-8.2 19-26.2 10.8-40.3S28.9-3.5 14.8 4.7z"/></g></g><g id="NAVI_WHITE" class="st2"><g class="st3"><path class="st0" d="M89.9 22.9c11.2 0 18 6.1 18 15.3s-6.7 15.3-18 15.3h-2.6v12.8c0 .4-.4.9-1 .9H74.7c-.4 0-.9-.4-.9-.9V23.8c0-.5.4-1 .9-1l15.2.1zm.6 19c2.2 0 3.8-1.5 3.8-3.8 0-2.2-1.5-3.8-3.8-3.8h-3.3v7.6h3.3zM138.3 55.6c.4 0 .8.4.8.9l-.9 9.8c-.1.4-.5.9-1 .9H114c-.5 0-1-.4-1-.9V23.8c0-.5.4-1 1-1h11.3c.5 0 1 .5 1 1v31.7l12 .1zM188.8 66.3c.2.4-.1.8-.6.8h-12.7c-.6 0-1.1-.3-1.4-.8l-1.9-6.7h-12.1l-1.9 6.7c-.3.5-.8.8-1.4.8h-12.7c-.5 0-.8-.4-.6-.8L158 23.7c.2-.4.9-.8 1.5-.8h13.1c.6 0 1.4.5 1.5.8l14.7 42.6zm-22.6-28.1l-3.5 12.2h6.9l-3.4-12.2zM223.6 22.9c.6 0 1 .5.7 1l-14.2 25.5v16.8c0 .4-.4.9-1 .9h-11.3c-.5 0-1-.4-1-.9V49.4l-14.2-25.5c-.3-.6.1-1 .7-1h13.3c.6 0 1.2.5 1.5 1l5.3 11.5 5.3-11.5c.3-.6.8-1 1.5-1h13.4zM259.4 22.9c.6 0 1 .5 1 .9v9.7c0 .6-.4 1-1 1h-16.3v5.8H256c.6 0 .9.5.8.8l-.9 9c-.1.4-.5.8-1.1.8h-11.7v15.3c0 .4-.4.9-1 .9h-11.4c-.5 0-.9-.5-.9-1V23.8c0-.5.4-.9.9-.9h28.7zM277.9 22.9c.6 0 1 .5 1 1v42.4c0 .4-.4.9-1 .9h-11.4c-.5 0-.9-.4-.9-.9V23.8c0-.5.5-1 .9-1l11.4.1zM321.6 22.9c.6 0 1 .5 1 1v42.4c0 .4-.4.9-1 .9h-11.1c-.5 0-1-.3-1.4-.8L298 46.3v19.9c0 .4-.4.9-1 .9h-11.4c-.5 0-.9-.4-.9-.9V23.8c0-.5.4-1 .9-1h11.1c.6 0 1.2.3 1.5.8l11.1 20V23.8c0-.5.5-1 .9-1l11.4.1zM344.2 22.9c13.6 0 22.6 8.8 22.6 22.1 0 13.2-9 22.1-22.6 22.1h-14.9c-.5 0-.9-.4-.9-1V23.8c0-.5.5-1 .9-1l14.9.1zm.8 32.7c4.9 0 8.3-4.2 8.3-10.6S350 34.4 345 34.4h-3.3v21.2h3.3zM402.4 55.6c.5 0 1 .4 1 .8v9.8c0 .4-.5.9-1 .9h-29.8c-.5 0-.9-.5-1-1V23.8c0-.6.3-.9.9-.9h29.2c.6 0 1 .5 1 .9v9.7c0 .6-.5 1-1 1H385v5.1h13.6c.6 0 .9.5.8.8l-.9 9c-.1.4-.5.8-1.1.8H385v5.5l17.4-.1zM444.9 66.1c.3.6-.1 1-.7 1h-13.7c-.6 0-1.2-.4-1.5-1l-6.7-14h-.8v14.1c0 .4-.5.9-1 .9h-11.3c-.5 0-1-.4-1-.9V23.8c0-.5.5-1 1-1h16.9c9.9 0 16.4 5.8 16.4 14.5 0 5.1-3.1 10.2-7.9 12.2l10.3 16.6zm-19.6-24.9c2.2 0 3.7-1.3 3.7-3.4s-1.5-3.4-3.7-3.4h-3.8v6.8h3.8z"/></g><g class="st3"><path class="st4" d="M22.2 17.5c-7.1 4.1-9.5 13.1-5.4 20.2L25 51.9l4.5 7.8L38 74.4l4.3-7.4-19.2-33.1c-2-3.5-.8-8 2.7-10.1s8-.8 10.1 2.7.8 8-2.7 10.1l3.7 6.4c7.1-4.1 9.5-13.1 5.4-20.2s-13.1-9.4-20.1-5.3z"/><path class="st4" d="M14.8 4.7C.6 12.8-4.2 30.9 4 45l25.6 44.2 4.3-7.4-23.5-40.5C4.3 30.7 7.9 17.2 18.5 11s24.1-2.5 30.3 8.1c6.1 10.6 2.5 24.1-8.1 30.3l3.7 6.4c14.1-8.2 19-26.2 10.8-40.3S28.9-3.5 14.8 4.7z"/></g></g><g id="BLACK" class="st2"><g class="st3"><path d="M89.9 22.9c11.2 0 18 6.1 18 15.3s-6.7 15.3-18 15.3h-2.6v12.8c0 .4-.4.9-1 .9H74.7c-.4 0-.9-.4-.9-.9V23.8c0-.5.4-1 .9-1l15.2.1zm.6 19c2.2 0 3.8-1.5 3.8-3.8 0-2.2-1.5-3.8-3.8-3.8h-3.3v7.6h3.3zM138.3 55.6c.4 0 .8.4.8.9l-.9 9.8c-.1.4-.5.9-1 .9H114c-.5 0-1-.4-1-.9V23.8c0-.5.4-1 1-1h11.3c.5 0 1 .5 1 1v31.7l12 .1zM188.8 66.3c.2.4-.1.8-.6.8h-12.7c-.6 0-1.1-.3-1.4-.8l-1.9-6.7h-12.1l-1.9 6.7c-.3.5-.8.8-1.4.8h-12.7c-.5 0-.8-.4-.6-.8L158 23.7c.2-.4.9-.8 1.5-.8h13.1c.6 0 1.4.5 1.5.8l14.7 42.6zm-22.6-28.1l-3.5 12.2h6.9l-3.4-12.2zM223.6 22.9c.6 0 1 .5.7 1l-14.2 25.5v16.8c0 .4-.4.9-1 .9h-11.3c-.5 0-1-.4-1-.9V49.4l-14.2-25.5c-.3-.6.1-1 .7-1h13.3c.6 0 1.2.5 1.5 1l5.3 11.5 5.3-11.5c.3-.6.8-1 1.5-1h13.4zM259.4 22.9c.6 0 1 .5 1 .9v9.7c0 .6-.4 1-1 1h-16.3v5.8H256c.6 0 .9.5.8.8l-.9 9c-.1.4-.5.8-1.1.8h-11.7v15.3c0 .4-.4.9-1 .9h-11.4c-.5 0-.9-.5-.9-1V23.8c0-.5.4-.9.9-.9h28.7zM277.9 22.9c.6 0 1 .5 1 1v42.4c0 .4-.4.9-1 .9h-11.4c-.5 0-.9-.4-.9-.9V23.8c0-.5.5-1 .9-1l11.4.1zM321.6 22.9c.6 0 1 .5 1 1v42.4c0 .4-.4.9-1 .9h-11.1c-.5 0-1-.3-1.4-.8L298 46.3v19.9c0 .4-.4.9-1 .9h-11.4c-.5 0-.9-.4-.9-.9V23.8c0-.5.4-1 .9-1h11.1c.6 0 1.2.3 1.5.8l11.1 20V23.8c0-.5.5-1 .9-1l11.4.1zM344.2 22.9c13.6 0 22.6 8.8 22.6 22.1 0 13.2-9 22.1-22.6 22.1h-14.9c-.5 0-.9-.4-.9-1V23.8c0-.5.5-1 .9-1l14.9.1zm.8 32.7c4.9 0 8.3-4.2 8.3-10.6S350 34.4 345 34.4h-3.3v21.2h3.3zM402.4 55.6c.5 0 1 .4 1 .8v9.8c0 .4-.5.9-1 .9h-29.8c-.5 0-.9-.5-1-1V23.8c0-.6.3-.9.9-.9h29.2c.6 0 1 .5 1 .9v9.7c0 .6-.5 1-1 1H385v5.1h13.6c.6 0 .9.5.8.8l-.9 9c-.1.4-.5.8-1.1.8H385v5.5l17.4-.1zM444.9 66.1c.3.6-.1 1-.7 1h-13.7c-.6 0-1.2-.4-1.5-1l-6.7-14h-.8v14.1c0 .4-.5.9-1 .9h-11.3c-.5 0-1-.4-1-.9V23.8c0-.5.5-1 1-1h16.9c9.9 0 16.4 5.8 16.4 14.5 0 5.1-3.1 10.2-7.9 12.2l10.3 16.6zm-19.6-24.9c2.2 0 3.7-1.3 3.7-3.4s-1.5-3.4-3.7-3.4h-3.8v6.8h3.8z"/></g><g class="st3"><path d="M22.2 17.5c-7.1 4.1-9.5 13.1-5.4 20.2L25 51.9l4.5 7.8L38 74.4l4.3-7.4-19.2-33.1c-2-3.5-.8-8 2.7-10.1s8-.8 10.1 2.7.8 8-2.7 10.1l3.7 6.4c7.1-4.1 9.5-13.1 5.4-20.2s-13.1-9.4-20.1-5.3z"/><path d="M14.8 4.7C.6 12.8-4.2 30.9 4 45l25.6 44.2 4.3-7.4-23.5-40.5C4.3 30.7 7.9 17.2 18.5 11s24.1-2.5 30.3 8.1c6.1 10.6 2.5 24.1-8.1 30.3l3.7 6.4c14.1-8.2 19-26.2 10.8-40.3S28.9-3.5 14.8 4.7z"/></g></g><g id="WHITE" class="st2"><g class="st3"><path class="st0" d="M89.9 22.9c11.2 0 18 6.1 18 15.3s-6.7 15.3-18 15.3h-2.6v12.8c0 .4-.4.9-1 .9H74.7c-.4 0-.9-.4-.9-.9V23.8c0-.5.4-1 .9-1l15.2.1zm.6 19c2.2 0 3.8-1.5 3.8-3.8 0-2.2-1.5-3.8-3.8-3.8h-3.3v7.6h3.3zM138.3 55.6c.4 0 .8.4.8.9l-.9 9.8c-.1.4-.5.9-1 .9H114c-.5 0-1-.4-1-.9V23.8c0-.5.4-1 1-1h11.3c.5 0 1 .5 1 1v31.7l12 .1zM188.8 66.3c.2.4-.1.8-.6.8h-12.7c-.6 0-1.1-.3-1.4-.8l-1.9-6.7h-12.1l-1.9 6.7c-.3.5-.8.8-1.4.8h-12.7c-.5 0-.8-.4-.6-.8L158 23.7c.2-.4.9-.8 1.5-.8h13.1c.6 0 1.4.5 1.5.8l14.7 42.6zm-22.6-28.1l-3.5 12.2h6.9l-3.4-12.2zM223.6 22.9c.6 0 1 .5.7 1l-14.2 25.5v16.8c0 .4-.4.9-1 .9h-11.3c-.5 0-1-.4-1-.9V49.4l-14.2-25.5c-.3-.6.1-1 .7-1h13.3c.6 0 1.2.5 1.5 1l5.3 11.5 5.3-11.5c.3-.6.8-1 1.5-1h13.4zM259.4 22.9c.6 0 1 .5 1 .9v9.7c0 .6-.4 1-1 1h-16.3v5.8H256c.6 0 .9.5.8.8l-.9 9c-.1.4-.5.8-1.1.8h-11.7v15.3c0 .4-.4.9-1 .9h-11.4c-.5 0-.9-.5-.9-1V23.8c0-.5.4-.9.9-.9h28.7zM277.9 22.9c.6 0 1 .5 1 1v42.4c0 .4-.4.9-1 .9h-11.4c-.5 0-.9-.4-.9-.9V23.8c0-.5.5-1 .9-1l11.4.1zM321.6 22.9c.6 0 1 .5 1 1v42.4c0 .4-.4.9-1 .9h-11.1c-.5 0-1-.3-1.4-.8L298 46.3v19.9c0 .4-.4.9-1 .9h-11.4c-.5 0-.9-.4-.9-.9V23.8c0-.5.4-1 .9-1h11.1c.6 0 1.2.3 1.5.8l11.1 20V23.8c0-.5.5-1 .9-1l11.4.1zM344.2 22.9c13.6 0 22.6 8.8 22.6 22.1 0 13.2-9 22.1-22.6 22.1h-14.9c-.5 0-.9-.4-.9-1V23.8c0-.5.5-1 .9-1l14.9.1zm.8 32.7c4.9 0 8.3-4.2 8.3-10.6S350 34.4 345 34.4h-3.3v21.2h3.3zM402.4 55.6c.5 0 1 .4 1 .8v9.8c0 .4-.5.9-1 .9h-29.8c-.5 0-.9-.5-1-1V23.8c0-.6.3-.9.9-.9h29.2c.6 0 1 .5 1 .9v9.7c0 .6-.5 1-1 1H385v5.1h13.6c.6 0 .9.5.8.8l-.9 9c-.1.4-.5.8-1.1.8H385v5.5l17.4-.1zM444.9 66.1c.3.6-.1 1-.7 1h-13.7c-.6 0-1.2-.4-1.5-1l-6.7-14h-.8v14.1c0 .4-.5.9-1 .9h-11.3c-.5 0-1-.4-1-.9V23.8c0-.5.5-1 1-1h16.9c9.9 0 16.4 5.8 16.4 14.5 0 5.1-3.1 10.2-7.9 12.2l10.3 16.6zm-19.6-24.9c2.2 0 3.7-1.3 3.7-3.4s-1.5-3.4-3.7-3.4h-3.8v6.8h3.8z"/></g><g class="st3"><path class="st0" d="M22.2 17.5c-7.1 4.1-9.5 13.1-5.4 20.2L25 51.9l4.5 7.8L38 74.4l4.3-7.4-19.2-33.1c-2-3.5-.8-8 2.7-10.1s8-.8 10.1 2.7.8 8-2.7 10.1l3.7 6.4c7.1-4.1 9.5-13.1 5.4-20.2s-13.1-9.4-20.1-5.3z"/><path class="st0" d="M14.8 4.7C.6 12.8-4.2 30.9 4 45l25.6 44.2 4.3-7.4-23.5-40.5C4.3 30.7 7.9 17.2 18.5 11s24.1-2.5 30.3 8.1c6.1 10.6 2.5 24.1-8.1 30.3l3.7 6.4c14.1-8.2 19-26.2 10.8-40.3S28.9-3.5 14.8 4.7z"/></g></g></svg>